{"title":"Pearl Harbor.2001.[x264][AC3(5.1)].Multi_Sub.mkv","uid":5381019,"size":2546527336,"categoryP":"video","categoryS":"movies","magnet":"?xt=urn:btih:eab291319a6c8580c3e25adb76c6ddd08e5a25cf&amp;dn=Pearl+Harbor.2001.%5Bx264%5D%5BAC3%285.1%29%5D.Multi_Sub.mkv&amp;tr=udp%3A%2F%2Ftracker.openbittorrent.com%3A80&amp;tr=udp%3A%2F%2Fopen.demonii.com%3A1337&amp;tr=udp%3A%2F%2Ftracker.coppersurfer.tk%3A6969&amp;tr=udp%3A%2F%2Fexodus.desync.com%3A6969","seeders":1,"leechers":0,"uploader":"Zen_Bud","files":-1,"time":1266741305,"description":"General\nComplete name                    : Pearl Harbor.mkv\nFormat                           : Matroska\nFile size                        : 2.16 GiB\nDuration                         : 3h 3mn\nOverall bit rate                 : 1 689 Kbps\n\n\nVideo\nID                               : 1\nFormat                           : AVC\nDuration                         : 3h 3mn\nBit rate                         : 1 207 Kbps\nWidth                            : 720 pixels\nHeight                           : 428 pixels\nDisplay aspect ratio             : 2.35:1\nFrame rate                       : 25.000 fps\nResolution                       : 8 bits\nColorimetry                      : 4:2:0\nScan type                        : Progressive\nBits/(Pixel*Frame)               : 0.157\nStream size                      : 1.54 GiB (71%)\nWriting library                  : x264 core 79\n\n\nAudio\nID                               : 2\nFormat                           : AC-3\nFormat/Info                      : Audio Coding 3\nCodec ID                         : A_AC3\nDuration                         : 3h 3mn\nBit rate mode                    : Constant\nBit rate                         : 448 Kbps\nChannel(s)                       : 6 channels\nChannel positions                : Front: L C R, Surround: L R, LFE\nSampling rate                    : 48.0 KHz\nStream size                      : 587 MiB (27%)\nLanguage                         : English\n\nText #1\nLanguage                         : English\n\nText #2\nLanguage                         : English(for hearing)\n\nText #3\nLanguage                         : Spanish\n\nText #4\nLanguage                         : French\n\nText #5\nLanguage                         : Dutch\n\nText #6\nLanguage                         : Swedish\n\nText #7\nLanguage                         : Norwegian\n\nText #8\nLanguage                         : Danish\n\nText #9\nLanguage                         : Finnish\n\n","torrent":{"xt":"urn:btih:eab291319a6c8580c3e25adb76c6ddd08e5a25cf","amp;dn":"Pearl+Harbor.2001.%5Bx264%5D%5BAC3%285.1%29%5D.Multi_Sub.mkv","amp;tr":["udp%3A%2F%2Ftracker.openbittorrent.com%3A80","udp%3A%2F%2Fopen.demonii.com%3A1337","udp%3A%2F%2Ftracker.coppersurfer.tk%3A6969","udp%3A%2F%2Fexodus.desync.com%3A6969"],"infoHash":"eab291319a6c8580c3e25adb76c6ddd08e5a25cf","infoHashBuffer":{"type":"Buffer","data":[234,178,145,49,154,108,133,128,195,226,90,219,118,198,221,208,142,90,37,207]},"announce":[],"urlList":[]}}